<?xml version="1.0" encoding="UTF-8" standalone="no"?>
<!DOCTYPE svg PUBLIC "-//W3C//DTD SVG 1.1//EN" "http://www.w3.org/Graphics/SVG/1.1/DTD/svg11.dtd">
<svg width="100%" height="100%" viewBox="0 0 3950 795" version="1.1" xmlns="http://www.w3.org/2000/svg" xmlns:xlink="http://www.w3.org/1999/xlink" xml:space="preserve" xmlns:serif="http://www.serif.com/" style="fill-rule:evenodd;clip-rule:evenodd;stroke-linejoin:round;stroke-miterlimit:2;">
    <g transform="matrix(1,0,0,1,95.8876,-1050.2)">
        <path d="M-86.319,1131.29C-90.648,1132.16 -94.866,1129.35 -95.732,1125.02C-96.598,1120.69 -93.786,1116.47 -89.457,1115.61C56.857,1086.34 257.293,998.359 540.611,1092.8C652.654,1130.15 716.626,1202.8 791.795,1283.34C902.307,1401.74 1037.96,1536.89 1395.99,1596.57C1611.37,1632.46 1832.51,1586.22 2073.89,1549.7C2317.1,1512.91 2580.68,1485.83 2879.17,1560.46C3156.84,1629.87 3277.78,1758.65 3590.17,1810.71C3604.26,1813.06 3707.09,1830.23 3779.05,1828.77C3796.93,1828.41 3812.85,1826.92 3824.83,1823.63C3831.54,1821.79 3836.9,1819.52 3840.18,1816.24C3843.3,1813.12 3848.37,1813.12 3851.49,1816.24C3854.61,1819.36 3854.61,1824.43 3851.49,1827.56C3846.64,1832.41 3839,1836.33 3829.06,1839.06C3816.06,1842.63 3798.8,1844.38 3779.38,1844.77C3706.29,1846.25 3601.85,1828.88 3587.54,1826.5C3274.63,1774.34 3153.42,1645.51 2875.29,1575.98C2579.12,1501.94 2317.6,1529.01 2076.28,1565.52C1833.13,1602.31 1610.32,1648.51 1393.36,1612.35C1029.92,1551.78 892.281,1414.44 780.098,1294.25C706.804,1215.73 644.8,1144.39 535.552,1107.98C255.907,1014.76 58.098,1102.41 -86.319,1131.29Z" style="fill:rgb(255,105,0);"/>
    </g>
</svg>
