<svg class="icon icon-home icon-sm" viewBox="0 0 20 20" stroke="currentColor" fill="none" xmlns="http://www.w3.org/2000/svg">
    <path stroke-linecap="round" stroke-linejoin="round" d="M18.3337 14.1667V10.4538C18.3337 9.09868 18.3337 8.42113 18.1681 7.79394C18.006 7.17971 17.7284 6.602 17.35 6.09172C16.9637 5.57066 16.4346 5.1474 15.3764 4.30088L14.9979 3.99805L14.9979 3.99804C13.2143 2.57117 12.3225 1.85774 11.3335 1.58413C10.4611 1.34279 9.53956 1.34279 8.66717 1.58413C7.67815 1.85774 6.78636 2.57118 5.00277 3.99805L5.00276 3.99805L4.62423 4.30088C3.56607 5.1474 3.037 5.57066 2.65064 6.09172C2.27227 6.602 1.99461 7.17971 1.83251 7.79394C1.66699 8.42113 1.66699 9.09868 1.66699 10.4538V14.1667C1.66699 16.4679 3.53247 18.3333 5.83366 18.3333C6.75413 18.3333 7.50033 17.5871 7.50033 16.6667V13.3333C7.50033 11.9526 8.61961 10.8333 10.0003 10.8333C11.381 10.8333 12.5003 11.9526 12.5003 13.3333V16.6667C12.5003 17.5871 13.2465 18.3333 14.167 18.3333C16.4682 18.3333 18.3337 16.4679 18.3337 14.1667Z"></path>
</svg>